<?xml version="1.0" encoding="UTF-8" standalone="no"?>
<!-- Created with Inkscape (http://www.inkscape.org/) -->

<svg
   xmlns:dc="http://purl.org/dc/elements/1.1/"
   xmlns:cc="http://creativecommons.org/ns#"
   xmlns:rdf="http://www.w3.org/1999/02/22-rdf-syntax-ns#"
   xmlns:svg="http://www.w3.org/2000/svg"
   xmlns="http://www.w3.org/2000/svg"
   xmlns:sodipodi="http://sodipodi.sourceforge.net/DTD/sodipodi-0.dtd"
   xmlns:inkscape="http://www.inkscape.org/namespaces/inkscape"
   width="744.09448819"
   height="1052.3622047"
   id="svg6071"
   version="1.1"
   inkscape:version="0.48.2 r9819"
   sodipodi:docname="background.svg">
  <defs
     id="defs6073">
    <clipPath
       clipPathUnits="userSpaceOnUse"
       id="clipPath5919">
      <path
         d="m 0,2016 960,0 L 960,0 0,0 0,2016 z"
         id="path5921" />
    </clipPath>
    <clipPath
       clipPathUnits="userSpaceOnUse"
       id="clipPath3997">
      <path
         d="m 0,2016 960,0 L 960,0 0,0 0,2016 z"
         id="path3999" />
    </clipPath>
    <clipPath
       clipPathUnits="userSpaceOnUse"
       id="clipPath5919-9">
      <path
         d="m 0,2016 960,0 L 960,0 0,0 0,2016 z"
         id="path5921-1" />
    </clipPath>
    <clipPath
       clipPathUnits="userSpaceOnUse"
       id="clipPath3997-7">
      <path
         d="m 0,2016 960,0 L 960,0 0,0 0,2016 z"
         id="path3999-0" />
    </clipPath>
  </defs>
  <sodipodi:namedview
     id="base"
     pagecolor="#ffffff"
     bordercolor="#666666"
     borderopacity="1.0"
     inkscape:pageopacity="0.0"
     inkscape:pageshadow="2"
     inkscape:zoom="0.22627417"
     inkscape:cx="1233.9491"
     inkscape:cy="1303.481"
     inkscape:document-units="px"
     inkscape:current-layer="layer1-9"
     showgrid="false"
     inkscape:window-width="1171"
     inkscape:window-height="738"
     inkscape:window-x="88"
     inkscape:window-y="0"
     inkscape:window-maximized="0" />
  <metadata
     id="metadata6076">
    <rdf:RDF>
      <cc:Work
         rdf:about="">
        <dc:format>image/svg+xml</dc:format>
        <dc:type
           rdf:resource="http://purl.org/dc/dcmitype/StillImage" />
        <dc:title></dc:title>
      </cc:Work>
    </rdf:RDF>
  </metadata>
  <g
     inkscape:label="Layer 1"
     inkscape:groupmode="layer"
     id="layer1">
    <g
       transform="translate(119,-1021.0007)"
       id="layer1-9"
       inkscape:label="Layer 1">
      <flowRoot
         style="font-size:22px;font-style:normal;font-variant:normal;font-weight:normal;font-stretch:normal;line-height:125%;letter-spacing:0px;word-spacing:0px;fill:#000000;fill-opacity:1;stroke:none;font-family:Verdana;-inkscape-font-specification:Verdana"
         id="flowRoot7109"
         xml:space="preserve"><flowRegion
           id="flowRegion7111"><rect
             y="219.42125"
             x="434.16357"
             height="121.62237"
             width="200.81833"
             id="rect7113" /></flowRegion><flowPara
           id="flowPara7115" /></flowRoot>      <flowRoot
         style="font-size:22px;font-style:normal;font-variant:normal;font-weight:normal;font-stretch:normal;line-height:125%;letter-spacing:0px;word-spacing:0px;fill:#000000;fill-opacity:1;stroke:none;font-family:Verdana;-inkscape-font-specification:Verdana"
         id="flowRoot7117"
         xml:space="preserve"><flowRegion
           id="flowRegion7119"><rect
             y="300.03143"
             x="547.30066"
             height="42.426407"
             width="83.438599"
             id="rect7121" /></flowRegion><flowPara
           id="flowPara7123" /></flowRoot>      <rect
         y="1026.6045"
         x="-109.81022"
         height="524.19165"
         width="568.64362"
         id="rect4823"
         style="opacity:0.8146552;fill:#262238;fill-opacity:1;stroke:none" />
      <path
         sodipodi:nodetypes="ccccc"
         inkscape:connector-curvature="0"
         id="bback"
         d="M -114.36528,1483.093 C 87.511692,1475.574 278.49212,1498.9114 459.20418,1451.4796 L 459.20418,1587.5982 -114.36528,1587.5982 z"
         style="fill:#262238;fill-opacity:1;stroke:#ffffff;stroke-width:2.43053532;stroke-linecap:butt;stroke-linejoin:miter;stroke-miterlimit:4;stroke-opacity:1;stroke-dashoffset:0"
         inkscape:label="bback" />
      <path
         sodipodi:nodetypes="czzzzszc"
         inkscape:connector-curvature="0"
         id="bigbackbubble"
         d="M 100.01634,1381.3014 C 82.43698,1347.2146 85.597356,1301.3464 71.75643,1299.985 57.915503,1298.6237 -15.472358,1250.8024 -7.0295576,1191.5591 1.4132563,1132.3155 59.526429,1086.1919 122.23836,1066.9481 184.95036,1047.7042 277.27136,1059.0485 324.11876,1116.3048 370.96616,1173.5612 347.188,1231.6294 307.25391,1265.3477 268.01172,1298.4819 183.37045,1315.8432 147.94642,1319.1938 112.52246,1322.5442 106.11177,1348.4433 100.01634,1381.3014 z"
         style="fill:#262238;fill-opacity:1;stroke:none"
         inkscape:label="#path4815" />
      <path
         style="fill:#262238;fill-opacity:1;stroke:none"
         d="M 330.21552,1435.6526 C 341.73027,1410.3961 336.04633,1402.5554 352.62096,1395.1288 369.19556,1387.702 411.53412,1356.2524 401.54362,1313.1375 391.55312,1270.0228 344.12025,1237.4887 294.73504,1224.6856 245.34972,1211.8825 174.9878,1222.0207 142.32136,1264.7916 109.65483,1307.5625 131.37501,1349.5114 164.08901,1373.3464 196.23621,1396.7682 262.38271,1407.7565 289.83527,1409.4945 317.28791,1411.2327 328.02257,1410.3198 330.21552,1435.6526 z"
         id="smallblackback"
         inkscape:connector-curvature="0"
         sodipodi:nodetypes="czzzzszc"
         inkscape:label="#path4819" />
      <text
         xml:space="preserve"
         style="font-size:22px;font-style:normal;font-variant:normal;font-weight:normal;font-stretch:normal;line-height:125%;letter-spacing:0px;word-spacing:0px;fill:#000000;fill-opacity:1;stroke:none;font-family:Verdana;-inkscape-font-specification:Verdana"
         x="1500.6512"
         y="440.58722"
         id="text3902"
         sodipodi:linespacing="125%"><tspan
           sodipodi:role="line"
           id="tspan3904"
           x="1500.6512"
           y="440.58722" /></text>
      <flowRoot
         xml:space="preserve"
         id="flowRoot7109-0"
         style="font-size:22px;font-style:normal;font-variant:normal;font-weight:normal;font-stretch:normal;line-height:125%;letter-spacing:0px;word-spacing:0px;fill:#000000;fill-opacity:1;stroke:none;font-family:Verdana;-inkscape-font-specification:Verdana"
         transform="translate(748.28962,-136.5992)"><flowRegion
           id="flowRegion7111-7"><rect
             id="rect7113-7"
             width="200.81833"
             height="121.62237"
             x="434.16357"
             y="219.42125" /></flowRegion><flowPara
           id="flowPara7115-0" /></flowRoot>      <flowRoot
         xml:space="preserve"
         id="flowRoot7117-7"
         style="font-size:22px;font-style:normal;font-variant:normal;font-weight:normal;font-stretch:normal;line-height:125%;letter-spacing:0px;word-spacing:0px;fill:#000000;fill-opacity:1;stroke:none;font-family:Verdana;-inkscape-font-specification:Verdana"
         transform="translate(748.28962,-136.5992)"><flowRegion
           id="flowRegion7119-8"><rect
             id="rect7121-2"
             width="83.438599"
             height="42.426407"
             x="547.30066"
             y="300.03143" /></flowRegion><flowPara
           id="flowPara7123-7" /></flowRoot>      <path
         sodipodi:nodetypes="czzzzszc"
         inkscape:connector-curvature="0"
         id="bigpinkbubble"
         d="M 97.640794,1372.8449 C 81.412814,1343.5819 90.168455,1294.5098 69.605756,1286.3077 49.04312,1278.1055 -4.6889172,1242.5222 3.1048473,1191.6625 10.898682,1140.8028 64.544527,1101.2064 122.43563,1084.6858 180.3268,1068.1652 265.55082,1077.9041 308.79694,1127.0578 352.04305,1176.2115 330.09279,1226.0624 293.22853,1255.009 257.00297,1283.4543 178.86829,1298.3588 146.16743,1301.2351 113.46658,1304.1115 97.817669,1343.0738 97.640794,1372.8449 z"
         style="fill:#c2185b;fill-opacity:1;stroke:#ffffff;stroke-width:1.38624048;stroke-linecap:butt;stroke-linejoin:miter;stroke-miterlimit:4;stroke-opacity:1;stroke-dasharray:none"
         inkscape:label="#bigpink" />
      <path
         style="fill:#c2185b;fill-opacity:1;stroke:#ffffff;stroke-width:1.35167432;stroke-linecap:butt;stroke-linejoin:miter;stroke-miterlimit:4;stroke-opacity:1;stroke-dasharray:none"
         d="M 332.95258,1422.3243 C 341.50261,1401.2509 336.6324,1382.8401 350.6198,1375.7263 364.60719,1368.6124 399.61221,1340.4245 388.41681,1306.5125 377.22146,1272.6005 334.06853,1249.7853 290.36308,1242.9431 246.65764,1236.1009 186.03645,1249.1318 160.10312,1285.7343 134.1698,1322.3369 155.50143,1354.4974 185.34476,1371.3537 214.67103,1387.9179 272.85223,1392.1378 296.83502,1391.6236 320.81787,1391.1096 329.57342,1402.143 332.95258,1422.3243 z"
         id="smallpink"
         inkscape:connector-curvature="0"
         sodipodi:nodetypes="czzzzszc" />
    </g>
  </g>
</svg>
