<?xml version="1.0" encoding="UTF-8" standalone="no"?>
<!-- Created with Inkscape (http://www.inkscape.org/) -->

<svg
   xmlns:dc="http://purl.org/dc/elements/1.1/"
   xmlns:cc="http://creativecommons.org/ns#"
   xmlns:rdf="http://www.w3.org/1999/02/22-rdf-syntax-ns#"
   xmlns:svg="http://www.w3.org/2000/svg"
   xmlns="http://www.w3.org/2000/svg"
   xmlns:sodipodi="http://sodipodi.sourceforge.net/DTD/sodipodi-0.dtd"
   xmlns:inkscape="http://www.inkscape.org/namespaces/inkscape"
   width="744.09448819"
   height="1052.3622047"
   id="svg6071"
   version="1.1"
   inkscape:version="0.48.2 r9819"
   sodipodi:docname="background.svg">
  <defs
     id="defs6073">
    <clipPath
       clipPathUnits="userSpaceOnUse"
       id="clipPath5919">
      <path
         d="m 0,2016 960,0 L 960,0 0,0 0,2016 z"
         id="path5921" />
    </clipPath>
    <clipPath
       clipPathUnits="userSpaceOnUse"
       id="clipPath3997">
      <path
         d="m 0,2016 960,0 L 960,0 0,0 0,2016 z"
         id="path3999" />
    </clipPath>
    <clipPath
       clipPathUnits="userSpaceOnUse"
       id="clipPath5919-9">
      <path
         d="m 0,2016 960,0 L 960,0 0,0 0,2016 z"
         id="path5921-1" />
    </clipPath>
    <clipPath
       clipPathUnits="userSpaceOnUse"
       id="clipPath3997-7">
      <path
         d="m 0,2016 960,0 L 960,0 0,0 0,2016 z"
         id="path3999-0" />
    </clipPath>
  </defs>
  <sodipodi:namedview
     id="base"
     pagecolor="#ffffff"
     bordercolor="#666666"
     borderopacity="1.0"
     inkscape:pageopacity="0.0"
     inkscape:pageshadow="2"
     inkscape:zoom="0.90509668"
     inkscape:cx="566.14178"
     inkscape:cy="845.43278"
     inkscape:document-units="px"
     inkscape:current-layer="layer1-9"
     showgrid="false"
     inkscape:window-width="1171"
     inkscape:window-height="738"
     inkscape:window-x="378"
     inkscape:window-y="50"
     inkscape:window-maximized="0" />
  <metadata
     id="metadata6076">
    <rdf:RDF>
      <cc:Work
         rdf:about="">
        <dc:format>image/svg+xml</dc:format>
        <dc:type
           rdf:resource="http://purl.org/dc/dcmitype/StillImage" />
        <dc:title></dc:title>
      </cc:Work>
    </rdf:RDF>
  </metadata>
  <g
     inkscape:label="Layer 1"
     inkscape:groupmode="layer"
     id="layer1">
    <g
       transform="translate(119,-1021.0007)"
       id="layer1-9"
       inkscape:label="Layer 1">
      <flowRoot
         style="font-size:22px;font-style:normal;font-variant:normal;font-weight:normal;font-stretch:normal;line-height:125%;letter-spacing:0px;word-spacing:0px;fill:#000000;fill-opacity:1;stroke:none;font-family:Verdana;-inkscape-font-specification:Verdana"
         id="flowRoot7109"
         xml:space="preserve"><flowRegion
           id="flowRegion7111"><rect
             y="219.42125"
             x="434.16357"
             height="121.62237"
             width="200.81833"
             id="rect7113" /></flowRegion><flowPara
           id="flowPara7115" /></flowRoot>      <flowRoot
         style="font-size:22px;font-style:normal;font-variant:normal;font-weight:normal;font-stretch:normal;line-height:125%;letter-spacing:0px;word-spacing:0px;fill:#000000;fill-opacity:1;stroke:none;font-family:Verdana;-inkscape-font-specification:Verdana"
         id="flowRoot7117"
         xml:space="preserve"><flowRegion
           id="flowRegion7119"><rect
             y="300.03143"
             x="547.30066"
             height="42.426407"
             width="83.438599"
             id="rect7121" /></flowRegion><flowPara
           id="flowPara7123" /></flowRoot>      <path
         sodipodi:nodetypes="ccccc"
         inkscape:connector-curvature="0"
         id="bbottom"
         d="M -114.36528,1483.093 C 87.511692,1475.574 278.49212,1498.9114 459.20418,1451.4796 L 459.20418,1587.5982 -114.36528,1587.5982 z"
         style="fill:#262238;fill-opacity:1;stroke:#ffffff;stroke-width:2.43053532;stroke-linecap:butt;stroke-linejoin:miter;stroke-miterlimit:4;stroke-opacity:1;stroke-dashoffset:0"
         inkscape:label="" />
      <path
         sodipodi:nodetypes="czzzzszc"
         inkscape:connector-curvature="0"
         id="blarge"
         d="M 22.236698,1408.283 C -1.6215971,1362.0211 2.6675915,1299.7701 -16.11699,1297.9224 -34.901573,1296.0749 -134.50187,1231.1729 -123.0435,1150.7692 -111.5851,1070.3653 -32.715262,1007.7674 52.395907,981.65018 137.50717,955.53276 262.80308,970.92897 326.38327,1048.6358 389.96347,1126.343 357.6923,1205.1517 303.49469,1250.9135 250.2361,1295.8824 135.36295,1319.4446 87.286286,1323.992 39.209712,1328.5391 30.509278,1363.6888 22.236698,1408.283 z"
         style="fill:#262238;fill-opacity:1;stroke:none"
         inkscape:label="#path4815" />
      <path
         style="fill:#262238;fill-opacity:1;stroke:none"
         d="M 334.65765,1482.0472 C 350.28519,1447.7696 342.57109,1437.1285 365.06579,1427.0492 387.56045,1416.9699 445.02135,1374.2871 431.46247,1315.7727 417.90362,1257.2583 353.52882,1213.1037 286.50437,1195.7276 219.47978,1178.3517 123.98621,1192.111 79.652086,1250.1588 35.31784,1308.2064 64.795959,1365.1383 109.19463,1397.4866 152.82406,1429.2742 242.59654,1444.1871 279.85451,1446.546 317.1126,1448.905 331.68144,1447.6662 334.65765,1482.0472 z"
         id="bsmall"
         inkscape:connector-curvature="0"
         sodipodi:nodetypes="czzzzszc"
         inkscape:label="#path4819" />
      <text
         xml:space="preserve"
         style="font-size:22px;font-style:normal;font-variant:normal;font-weight:normal;font-stretch:normal;line-height:125%;letter-spacing:0px;word-spacing:0px;fill:#000000;fill-opacity:1;stroke:none;font-family:Verdana;-inkscape-font-specification:Verdana"
         x="1500.6512"
         y="440.58722"
         id="text3902"
         sodipodi:linespacing="125%"><tspan
           sodipodi:role="line"
           id="tspan3904"
           x="1500.6512"
           y="440.58722" /></text>
      <flowRoot
         xml:space="preserve"
         id="flowRoot7109-0"
         style="font-size:22px;font-style:normal;font-variant:normal;font-weight:normal;font-stretch:normal;line-height:125%;letter-spacing:0px;word-spacing:0px;fill:#000000;fill-opacity:1;stroke:none;font-family:Verdana;-inkscape-font-specification:Verdana"
         transform="translate(748.28962,-136.5992)"><flowRegion
           id="flowRegion7111-7"><rect
             id="rect7113-7"
             width="200.81833"
             height="121.62237"
             x="434.16357"
             y="219.42125" /></flowRegion><flowPara
           id="flowPara7115-0" /></flowRoot>      <flowRoot
         xml:space="preserve"
         id="flowRoot7117-7"
         style="font-size:22px;font-style:normal;font-variant:normal;font-weight:normal;font-stretch:normal;line-height:125%;letter-spacing:0px;word-spacing:0px;fill:#000000;fill-opacity:1;stroke:none;font-family:Verdana;-inkscape-font-specification:Verdana"
         transform="translate(748.28962,-136.5992)"><flowRegion
           id="flowRegion7119-8"><rect
             id="rect7121-2"
             width="83.438599"
             height="42.426407"
             x="547.30066"
             y="300.03143" /></flowRegion><flowPara
           id="flowPara7123-7" /></flowRoot>      <path
         sodipodi:nodetypes="czzzzszc"
         inkscape:connector-curvature="0"
         id="largebubble"
         d="M 19.01266,1396.8061 C -3.0115704,1357.0911 8.8713806,1290.4915 -19.035835,1279.3599 -46.942965,1268.2281 -119.86683,1219.9351 -109.28932,1150.9095 -98.711705,1081.884 -25.904817,1028.1447 52.663635,1005.7233 131.23216,983.30192 246.89624,996.51941 305.58885,1063.2295 364.28148,1129.9398 334.49109,1197.5963 284.45978,1236.8819 235.29529,1275.4873 129.25273,1295.7152 84.871883,1299.6189 40.491046,1303.5227 19.252712,1356.4015 19.01266,1396.8061 z"
         style="fill:#c2185b;fill-opacity:1;stroke:#ffffff;stroke-width:1.88137329;stroke-linecap:butt;stroke-linejoin:miter;stroke-miterlimit:4;stroke-opacity:1;stroke-dasharray:none"
         inkscape:label="#bigpink" />
      <path
         style="fill:#c2185b;fill-opacity:1;stroke:#ffffff;stroke-width:1.83446085;stroke-linecap:butt;stroke-linejoin:miter;stroke-miterlimit:4;stroke-opacity:1;stroke-dasharray:none"
         d="M 338.37232,1463.9583 C 349.97623,1435.3579 343.3665,1410.3713 362.34986,1400.7167 381.33323,1391.0618 428.84121,1352.8059 413.64707,1306.7813 398.45301,1260.7568 339.88687,1229.7925 280.57086,1220.5064 221.25484,1211.2203 138.98117,1228.9056 103.78506,1278.5815 68.588984,1328.2578 97.539766,1371.9053 138.04245,1394.7823 177.84336,1417.2626 256.80553,1422.9899 289.35442,1422.292 321.90337,1421.5946 333.7862,1436.5688 338.37232,1463.9583 z"
         id="smallbubble"
         inkscape:connector-curvature="0"
         sodipodi:nodetypes="czzzzszc"
         inkscape:label="#smallpink" />
    </g>
  </g>
</svg>
