<?xml version="1.0" encoding="UTF-8" standalone="no"?>
<!-- Created with Inkscape (http://www.inkscape.org/) -->

<svg
   xmlns:dc="http://purl.org/dc/elements/1.1/"
   xmlns:cc="http://creativecommons.org/ns#"
   xmlns:rdf="http://www.w3.org/1999/02/22-rdf-syntax-ns#"
   xmlns:svg="http://www.w3.org/2000/svg"
   xmlns="http://www.w3.org/2000/svg"
   xmlns:sodipodi="http://sodipodi.sourceforge.net/DTD/sodipodi-0.dtd"
   xmlns:inkscape="http://www.inkscape.org/namespaces/inkscape"
   width="412.875"
   height="185.53128"
   id="svg13845"
   version="1.1"
   inkscape:version="0.48.2 r9819"
   sodipodi:docname="help.svg">
  <defs
     id="defs13847" />
  <sodipodi:namedview
     id="base"
     pagecolor="#ffffff"
     bordercolor="#666666"
     borderopacity="1.0"
     inkscape:pageopacity="0.0"
     inkscape:pageshadow="2"
     inkscape:zoom="1.4"
     inkscape:cx="173.97048"
     inkscape:cy="5.9567849"
     inkscape:document-units="px"
     inkscape:current-layer="layer1"
     showgrid="false"
     fit-margin-top="0"
     fit-margin-left="0"
     fit-margin-right="0"
     fit-margin-bottom="0"
     inkscape:window-width="1280"
     inkscape:window-height="756"
     inkscape:window-x="181"
     inkscape:window-y="103"
     inkscape:window-maximized="0" />
  <metadata
     id="metadata13850">
    <rdf:RDF>
      <cc:Work
         rdf:about="">
        <dc:format>image/svg+xml</dc:format>
        <dc:type
           rdf:resource="http://purl.org/dc/dcmitype/StillImage" />
        <dc:title></dc:title>
      </cc:Work>
    </rdf:RDF>
  </metadata>
  <g
     inkscape:label="Layer 1"
     inkscape:groupmode="layer"
     id="layer1"
     transform="translate(-2.125,-2.4374742)">
    <rect
       style="fill:#045050;fill-opacity:1;stroke:#ffffff;stroke-width:2.8848269;stroke-linecap:round;stroke-linejoin:miter;stroke-miterlimit:4;stroke-opacity:1;stroke-dasharray:none;stroke-dashoffset:0"
       id="rect13785"
       width="294.27161"
       height="84.967987"
       x="119.28304"
       y="101.56621"
       rx="7.7040763"
       ry="7.2916274" />
    <path
       sodipodi:nodetypes="ccccccccccscccsccsccaccccc"
       inkscape:connector-curvature="0"
       id="path13783"
       d="m 73.222939,186.77729 -8.81248,-21.0859 c -15.07784,-5.2247 -30.15567,-12.6427 -45.23351,-19.2242 -5.96806,-12.5023 -11.4965704,-25.0922 -15.8317204,-39.5793 1.41613,-10.8284 3.82803,-20.8881 10.1775104,-29.9671 7.82983,-1.5338 11.82762,2.0255 12.43925,6.2196 l 0.84808,21.2031 c 5.03434,3.3479 9.09714,8.9116 13.85273,11.0257 5.50212,-5.6125 2.86161,-17.2522 1.69632,-26.5746 l -15.26631,-43.5372 c 0,0 -12.0056,-17.8188 -14.13548,-29.6845 -2.40118,-13.3771 14.33867,-14.5238 18.65887,-8.1986 6.07313,8.1239 12.31969,15.874 17.24529,26.0092 l 18.65878,42.1237 c 0,0 -14.67618,-31.1068 -11.30842,-40.7102 2.28972,-6.5292 13.0927,-6.3454 14.98357,-3.1097 10.22908,18.6809 5.0736,13.0386 17.24529,38.1657 0,0 -14.69154,-24.4991 -10.74293,-33.3596 3.92335,-8.8039 15.96294,-6.0035 19.78961,1.4135 l 11.591081,28.8363 c 0,0 -7.60008,-16.9604 -2.5444,-22.6167 2.44916,-2.7402 8.34661,-3.0667 11.02567,0 7.10536,12.0906 12.87184,24.8505 16.96254,38.4484 3.94774,21.3569 3.27038,41.1721 2.82707,61.0653 3.39256,17.469 5.98541,33.1044 9.37797,43.1371 z"
       style="fill:#008080;fill-opacity:1;stroke:#ffffff;stroke-width:2.39886665;stroke-linecap:butt;stroke-linejoin:miter;stroke-miterlimit:4;stroke-opacity:1;stroke-dasharray:none" />
  </g>
</svg>
