<?xml version="1.0" encoding="UTF-8" standalone="no"?>
<!-- Created with Inkscape (http://www.inkscape.org/) -->

<svg
   xmlns:dc="http://purl.org/dc/elements/1.1/"
   xmlns:cc="http://creativecommons.org/ns#"
   xmlns:rdf="http://www.w3.org/1999/02/22-rdf-syntax-ns#"
   xmlns:svg="http://www.w3.org/2000/svg"
   xmlns="http://www.w3.org/2000/svg"
   xmlns:sodipodi="http://sodipodi.sourceforge.net/DTD/sodipodi-0.dtd"
   xmlns:inkscape="http://www.inkscape.org/namespaces/inkscape"
   width="308.73141"
   height="221.02426"
   id="svg7323"
   version="1.1"
   inkscape:version="0.48.2 r9819"
   sodipodi:docname="New document 7">
  <defs
     id="defs7325">
    <clipPath
       clipPathUnits="userSpaceOnUse"
       id="clipPath5919">
      <path
         d="m 0,2016 960,0 L 960,0 0,0 0,2016 z"
         id="path5921"
         inkscape:connector-curvature="0" />
    </clipPath>
    <clipPath
       clipPathUnits="userSpaceOnUse"
       id="clipPath3997">
      <path
         d="m 0,2016 960,0 L 960,0 0,0 0,2016 z"
         id="path3999"
         inkscape:connector-curvature="0" />
    </clipPath>
  </defs>
  <sodipodi:namedview
     id="base"
     pagecolor="#ffffff"
     bordercolor="#666666"
     borderopacity="1.0"
     inkscape:pageopacity="0.0"
     inkscape:pageshadow="2"
     inkscape:zoom="0.49497475"
     inkscape:cx="276.56324"
     inkscape:cy="110.86471"
     inkscape:document-units="px"
     inkscape:current-layer="layer1-4"
     showgrid="false"
     fit-margin-top="0"
     fit-margin-left="0"
     fit-margin-right="0"
     fit-margin-bottom="0"
     inkscape:window-width="888"
     inkscape:window-height="547"
     inkscape:window-x="70"
     inkscape:window-y="84"
     inkscape:window-maximized="0" />
  <metadata
     id="metadata7328">
    <rdf:RDF>
      <cc:Work
         rdf:about="">
        <dc:format>image/svg+xml</dc:format>
        <dc:type
           rdf:resource="http://purl.org/dc/dcmitype/StillImage" />
        <dc:title></dc:title>
      </cc:Work>
    </rdf:RDF>
  </metadata>
  <g
     inkscape:label="Layer 1"
     inkscape:groupmode="layer"
     id="layer1"
     transform="translate(-6.6152407,-3.4124953)">
    <g
       transform="translate(-181,-990.00075)"
       id="layer1-4"
       inkscape:label="Layer 1">
      <text
         transform="translate(0,308.2677)"
         sodipodi:linespacing="125%"
         id="text3902"
         y="268.91873"
         x="752.36163"
         style="font-size:22px;font-style:normal;font-variant:normal;font-weight:normal;font-stretch:normal;line-height:125%;letter-spacing:0px;word-spacing:0px;fill:#000000;fill-opacity:1;stroke:none;font-family:Verdana;-inkscape-font-specification:Verdana"
         xml:space="preserve"><tspan
           y="268.91873"
           x="752.36163"
           id="tspan3904"
           sodipodi:role="line" /></text>
      <path
         style="fill:none;stroke:#000000;stroke-width:0.83832389;stroke-linecap:butt;stroke-linejoin:miter;stroke-miterlimit:4;stroke-opacity:1;stroke-dasharray:none"
         d="m 433.84398,1212.9876 c 10.87312,-25.4968 -6.52217,-47.7724 11.26563,-56.3796 17.78776,-8.6072 62.30363,-42.7121 48.06646,-83.7428 -14.23712,-41.0306 -69.11472,-68.6351 -124.69494,-76.91352 -55.58028,-8.27847 -132.67227,7.48782 -165.65162,51.77382 -32.97945,44.2859 -5.85204,83.1973 32.09977,103.5921 37.29425,20.0413 111.28325,25.1469 141.78218,24.5249 30.49902,-0.6219 52.83522,12.7275 57.13252,37.1451 z"
         id="path7103"
         inkscape:connector-curvature="0"
         sodipodi:nodetypes="czzzzszc" />
      <text
         sodipodi:linespacing="125%"
         id="text3845"
         y="525.28687"
         x="618.66266"
         style="font-size:22px;font-style:normal;font-variant:normal;font-weight:normal;font-stretch:normal;text-align:center;line-height:125%;letter-spacing:0px;word-spacing:0px;text-anchor:middle;fill:#ffffff;fill-opacity:1;stroke:none;font-family:Verdana;-inkscape-font-specification:Verdana"
         xml:space="preserve"><tspan
           style="font-size:32px;text-align:center;text-anchor:middle;fill:#ffffff;fill-opacity:1"
           y="525.28687"
           x="624.28766"
           id="tspan3847"
           sodipodi:role="line">&quot;Very unpleasant </tspan><tspan
           id="tspan3900"
           style="font-size:32px;text-align:center;text-anchor:middle;fill:#ffffff;fill-opacity:1"
           y="565.28687"
           x="624.28766"
           sodipodi:role="line">shopping experience!. </tspan><tspan
           id="tspan7105"
           style="font-size:32px;text-align:center;text-anchor:middle;fill:#ffffff;fill-opacity:1"
           y="605.28687"
           x="624.28766"
           sodipodi:role="line">Can't be bothered </tspan><tspan
           id="tspan7107"
           style="font-size:32px;text-align:center;text-anchor:middle;fill:#ffffff;fill-opacity:1"
           y="645.28687"
           x="618.66266"
           sodipodi:role="line">with this! so there&quot;</tspan></text>
      <flowRoot
         style="font-size:22px;font-style:normal;font-variant:normal;font-weight:normal;font-stretch:normal;line-height:125%;letter-spacing:0px;word-spacing:0px;fill:#000000;fill-opacity:1;stroke:none;font-family:Verdana;-inkscape-font-specification:Verdana"
         id="flowRoot7109"
         xml:space="preserve"><flowRegion
           id="flowRegion7111"><rect
             y="219.42125"
             x="434.16357"
             height="121.62237"
             width="200.81833"
             id="rect7113" /></flowRegion><flowPara
           id="flowPara7115" /></flowRoot>      <flowRoot
         style="font-size:22px;font-style:normal;font-variant:normal;font-weight:normal;font-stretch:normal;line-height:125%;letter-spacing:0px;word-spacing:0px;fill:#000000;fill-opacity:1;stroke:none;font-family:Verdana;-inkscape-font-specification:Verdana"
         id="flowRoot7117"
         xml:space="preserve"><flowRegion
           id="flowRegion7119"><rect
             y="300.03143"
             x="547.30066"
             height="42.426407"
             width="83.438599"
             id="rect7121" /></flowRegion><flowPara
           id="flowPara7123" /></flowRoot>      <path
         inkscape:connector-curvature="0"
         d="m 80.1415,996.42283 c -0.28328,-0.13465 -0.499729,-0.33814 -0.651343,-0.61144 -0.152612,-0.2733 -0.227421,-0.60546 -0.227421,-0.99646 l 0,-13.29717 -0.227422,-0.25136 -7.43109,0.43489 0,1.22289 c 0.303228,0.0329 0.639373,0.11172 1.008434,0.23441 0.36906,0.12268 0.64436,0.25136 0.826895,0.38502 0.242384,0.17954 0.444868,0.41594 0.606457,0.71218 0.161589,0.29625 0.242384,0.63838 0.242384,1.02939 l 0,9.74719 c 0,0.41395 -0.06583,0.7461 -0.1965,0.99647 -0.131665,0.25136 -0.359087,0.44486 -0.683262,0.57852 -0.181538,0.0788 -0.398985,0.13366 -0.651342,0.16758 -0.253356,0.033 -0.511698,0.0609 -0.774031,0.0838 l 0,1.2219 9.583614,0 0,-1.2219 c -0.262333,-0.0339 -0.514691,-0.0888 -0.758071,-0.16757 -0.242384,-0.0788 -0.464818,-0.16757 -0.667302,-0.26832 m -3.556949,14.62475 c -14.323552,0 -25.934008,-11.61137 -25.934008,-25.93397 0,-14.32255 11.610456,-25.93401 25.934008,-25.93401 14.322554,0 25.934009,11.61146 25.934009,25.93401 0,14.3226 -11.611455,25.93397 -25.934009,25.93397 m 0,-53.8629 c -15.42475,0 -27.928932,12.50418 -27.928932,27.92893 0,15.42477 12.504182,27.92897 27.928932,27.92897 15.423752,0 27.928929,-12.5042 27.928929,-27.92897 0,-15.42475 -12.505177,-27.92893 -27.928929,-27.92893 m -0.218444,21.11726 c 0.807944,0 1.509159,-0.29923 2.099657,-0.89572 0.591495,-0.59748 0.886743,-1.32163 0.886743,-2.16948 0,-0.84884 -0.292256,-1.57399 -0.878764,-2.17745 -0.586507,-0.60247 -1.28872,-0.90371 -2.107636,-0.90371 -0.818917,0 -1.524122,0.30124 -2.115617,0.90371 -0.591495,0.60346 -0.886744,1.32861 -0.886744,2.17745 0,0.84785 0.295249,1.572 0.886744,2.16948 0.591495,0.59649 1.2967,0.89572 2.115617,0.89572"
         style="fill:#ffffff;fill-opacity:1;fill-rule:nonzero;stroke:none"
         id="path7156" />
    </g>
  </g>
</svg>
